<svg width="31" height="31" viewBox="0 0 31 31" fill="none" xmlns="http://www.w3.org/2000/svg">
<path d="M2.095 19.2837C-0.604925 17.3764 -0.604925 13.3715 2.095 11.4642V11.4642C3.44545 10.5102 4.20796 8.92678 4.11185 7.27614V7.27614C3.91969 3.97605 7.05081 1.47906 10.2254 2.40074V2.40074C11.8133 2.86175 13.5266 2.47069 14.7572 1.36638V1.36638C17.2175 -0.841426 21.122 0.0497373 22.3807 3.10639V3.10639C23.0103 4.63527 24.3843 5.731 26.0149 6.0046V6.0046C29.275 6.5516 31.0127 10.1598 29.4077 13.0498V13.0498C28.6049 14.4952 28.6049 16.2526 29.4077 17.6981V17.6981C31.0127 20.588 29.275 24.1963 26.0149 24.7433V24.7433C24.3843 25.0169 23.0103 26.1126 22.3807 27.6415V27.6415C21.122 30.6981 17.2175 31.5893 14.7572 29.3815V29.3815C13.5266 28.2772 11.8133 27.8861 10.2254 28.3471V28.3471C7.05081 29.2688 3.91969 26.7718 4.11185 23.4717V23.4717C4.20796 21.8211 3.44545 20.2377 2.095 19.2837V19.2837Z" fill="#FBFFE4"/>
</svg>
