<svg width="49" height="50" viewBox="0 0 49 50" fill="none" xmlns="http://www.w3.org/2000/svg">
<path d="M-1.0699e-06 25.1964L19.6881 24.1786L2.1161 15.2409L20.5161 22.319L8.09851 7.00685L22.0288 20.957L16.9128 1.91791L23.9648 20.3279L27.0349 0.854033L25.9892 20.5407L36.7147 3.99917L27.752 21.5585L44.2783 10.8095L28.9485 23.2053L48.418 20.1075L29.3717 25.1964L48.418 30.2853L28.9485 27.1875L44.2783 39.5833L27.752 28.8343L36.7147 46.3936L25.9892 29.8521L27.0349 49.5388L23.9648 30.0649L16.9128 48.4749L22.0288 29.4358L8.09851 43.3859L20.5161 28.0738L2.1161 35.1519L19.6881 26.2142L-1.0699e-06 25.1964Z" fill="#FBFFE4"/>
</svg>
