<svg width="93" height="70" viewBox="0 0 93 70" fill="none" xmlns="http://www.w3.org/2000/svg">
<path d="M8.74563 37.6462L28.896 17.4959C31.1933 15.1982 33.9207 13.3754 36.9225 12.1318C39.9243 10.8882 43.1416 10.248 46.3908 10.2479C49.64 10.2478 52.8574 10.8876 55.8593 12.131C58.8612 13.3743 61.5888 15.1968 63.8863 17.4943V17.4943L26.2416 55.1391C23.9217 57.459 20.7752 58.7623 17.4944 58.7623C14.2136 58.7623 11.0671 57.4589 8.7472 55.139V55.139C6.4273 52.8191 5.12398 49.6727 5.12398 46.3919C5.12398 43.111 6.42729 39.9646 8.74719 37.6447L8.74563 37.6462Z" stroke="#D1FF70" stroke-width="4.97326" stroke-miterlimit="10"/>
<path d="M46.4775 59.5214C60.0742 59.5214 71.0966 48.499 71.0966 34.9023C71.0966 21.3055 60.0742 10.2832 46.4775 10.2832C32.8807 10.2832 21.8584 21.3055 21.8584 34.9023C21.8584 48.499 32.8807 59.5214 46.4775 59.5214Z" stroke="#D1FF70" stroke-width="4.97326" stroke-miterlimit="10"/>
<path d="M84.2528 32.1151L64.1025 52.2655C61.8048 54.5631 59.077 56.3857 56.075 57.629C53.0729 58.8724 49.8552 59.5122 46.6059 59.5119C43.3565 59.5116 40.139 58.8712 37.1371 57.6273C34.1352 56.3834 31.4078 54.5604 29.1105 52.2623V52.2623L66.7553 14.6176C69.0752 12.2977 72.2216 10.9944 75.5025 10.9944C78.7833 10.9944 81.9298 12.2977 84.2497 14.6176V14.6176C85.399 15.7661 86.3109 17.1299 86.9331 18.6309C87.5553 20.1319 87.8757 21.7408 87.876 23.3657C87.8763 24.9906 87.5565 26.5996 86.9348 28.1008C86.3131 29.6021 85.4018 30.9662 84.2528 32.1151V32.1151Z" stroke="#D1FF70" stroke-width="4.97326" stroke-miterlimit="10"/>
</svg>
